# xmcd
#
# Track frame offsets: 
#        150
#        11040
#        22542
#        35237
#        48572
#        60815
#        71712
#        82912
#        96870
#        109020
#        122825
#        134790
#        146010
#        161652
#        173672
#        184912
#        198670
#        209957
#        226077
#        239110
#
# Disc length: 3366 seconds
#
# Revision: 3
# Processed by: cddbd v1.4PL0 Copyright (c) Steve Scherf et al.
# Submitted via: ExactAudioCopy v0.90b4
#
DISCID=250d2414
DTITLE=George Strait - Strait Country-Strait From The Heart
DYEAR=1900
DGENRE=Country
TTITLE0=Unwound
TTITLE1=Honky Tonk Down Stairs
TTITLE2=Blame It On Mexico
TTITLE3=If You're Thinking You Want A Stranger (There's One Coming Hom
TTITLE3=e)
TTITLE4=I Get Along With You
TTITLE5=Down And Out
TTITLE6=Friday Night Fever
TTITLE7=Every Time You Throw Dirt On Her (You Lose A Little Ground)
TTITLE8=She's Playing Hell Trying To Get Me To Heaven
TTITLE9=Her Goodbye Hit Me In The Heart
TTITLE10=Fool Hearted Memory (From The Motion Picture "The Soldier")
TTITLE11=Honky Tonk Crazy
TTITLE12=The Only Thing I Have Left
TTITLE13=The Steal Of The Night
TTITLE14=I Can't See Texas From Here
TTITLE15=Marina Del Ray
TTITLE16=Lover In Disguise
TTITLE17=Heartbroke
TTITLE18=Amarillo By Morning
TTITLE19=A Fire I Can't Put Out
EXTD=
EXTT0=
EXTT1=
EXTT2=
EXTT3=
EXTT4=
EXTT5=
EXTT6=
EXTT7=
EXTT8=
EXTT9=
EXTT10=
EXTT11=
EXTT12=
EXTT13=
EXTT14=
EXTT15=
EXTT16=
EXTT17=
EXTT18=
EXTT19=
PLAYORDER=
